<?xml version="1.0" encoding="UTF-8" standalone="no"?>
<svg
   version="1.1"
   width="1440"
   height="760"
   preserveAspectRatio="none"
   viewBox="0 0 1440 760"
   id="svg15"
   sodipodi:docname="bgImg.svg"
   inkscape:version="1.2.1 (9c6d41e410, 2022-07-14)"
   xmlns:inkscape="http://www.inkscape.org/namespaces/inkscape"
   xmlns:sodipodi="http://sodipodi.sourceforge.net/DTD/sodipodi-0.dtd"
   xmlns="http://www.w3.org/2000/svg"
   xmlns:svg="http://www.w3.org/2000/svg">
  <sodipodi:namedview
     id="namedview17"
     pagecolor="#ffffff"
     bordercolor="#666666"
     borderopacity="1.0"
     inkscape:showpageshadow="2"
     inkscape:pageopacity="0.0"
     inkscape:pagecheckerboard="0"
     inkscape:deskcolor="#d1d1d1"
     showgrid="false"
     inkscape:zoom="0.99736842"
     inkscape:cx="719.89446"
     inkscape:cy="380"
     inkscape:window-width="1920"
     inkscape:window-height="991"
     inkscape:window-x="-9"
     inkscape:window-y="-9"
     inkscape:window-maximized="1"
     inkscape:current-layer="g8" />
  <g
     mask="url(&quot;#SvgjsMask1020&quot;)"
     fill="none"
     id="g8">
    <rect
       width="1440"
       height="760"
       x="0"
       y="0"
       fill="rgba(21, 20, 25, 1)"
       id="rect2" />
    <path
       d="m 24.693343,356.057 c 70.809984,3.356 153.241797,-2.48165 208.894107,-43.55665 51.98721,-38.37 71.50144,-134.99354 107.43903,-187.01254 C 383.72209,63.687807 440.18892,16.701 446.15338,-56.66 c 6.37194,-78.372 -17.36828,-168.436 -82.93997,-217.614 -65.16529,-48.873 -163.40198,-6.14 -243.78056,-27.419 -79.169011,-20.959 -137.263998,-100.188 -219.371923,-95.193 -85.344157,5.192 -177.692317,49.714 -215.107917,121.624 -37.46587,72.006 36.60387,153.8 30.25226,233.655 -5.67785,71.383 -93.64436,135.132 -64.85836,201.459 28.53575,65.75 129.51565,65.355 195.71298,100.051 61.171871,32.062 108.5967,92.834 178.633453,96.154"
       fill="#100f13"
       id="path4"
       sodipodi:nodetypes="cscsccccccsc"
       style="stroke-width:1.03415" />
    <path
       d="m 1381.265,1427.3007 c 112.0273,-5.2484 188.0584,-97.6431 270.412,-163.7487 69.4069,-55.7135 133.6522,-114.8194 170.6703,-190.3112 36.3473,-74.12317 37.7113,-153.94901 37.6428,-234.50266 -0.079,-93.07836 28.2638,-198.43177 -38.0744,-271.57829 -66.5063,-73.33225 -191.3159,-74.65787 -295.8437,-96.60786 -99.5287,-20.90029 -233.7631,56.75942 -333.8766,75.44082 -104.4699,19.49421 -264.48574,-37.35576 -340.69354,27.63923 -80.77647,68.89143 -50.72829,153.21477 -71.63473,249.80231 -21.32673,98.52601 0.15858,203.57865 58.09783,290.31065 55.39235,82.9194 161.4758,122.9755 253.44674,176.0549 93.5813,54.0086 177.6256,142.7589 289.8533,137.5008"
       fill="#1a191f"
       id="path6"
       style="stroke-width:0.80722"
       sodipodi:nodetypes="csscsssscssc" />
  </g>
  <defs
     id="defs13">
    <mask
       id="SvgjsMask1020">
      <rect
         width="1440"
         height="760"
         fill="#ffffff"
         id="rect10" />
    </mask>
  </defs>
</svg>
