<svg xmlns="http://www.w3.org/2000/svg" version="1.1" xmlns:xlink="http://www.w3.org/1999/xlink" xmlns:svgjs="http://svgjs.com/svgjs" width="1440" height="760" preserveAspectRatio="none" viewBox="0 0 1440 760"><g mask="url(&quot;#SvgjsMask1024&quot;)" fill="none"><rect width="1440" height="760" x="0" y="0" fill="rgba(21, 20, 25, 1)"></rect><path d="M0,652.142C127.223,678.801,275.586,667.67,376.172,585.336C475.395,504.118,461.074,351.484,511.393,233.545C560.024,119.562,676.445,27.676,666.813,-95.873C657.11,-220.333,540.327,-303.116,461.979,-400.307C380.483,-501.402,326.716,-655.023,198.669,-676.603C68.691,-698.508,-35.119,-571.594,-147.711,-503.058C-231.757,-451.898,-308.866,-397.686,-376.67,-326.386C-447.561,-251.84,-523.232,-178.303,-550.795,-79.192C-580.337,27.038,-584.918,145.991,-535.44,244.527C-486.554,341.885,-373.564,380.408,-286.882,446.397C-191.314,519.151,-117.557,627.509,0,652.142" fill="#100f13"></path><path d="M1440 1360.4940000000001C1562.811 1355.115 1687.747 1370.984 1798.858 1318.393 1918.637 1261.699 2025.068 1172.717 2085.688 1054.876 2147.724 934.283 2169.916 791.418 2137.71 659.684 2106.801 533.2570000000001 2021.312 422.512 1913.326 349.861 1817.343 285.285 1694.001 302.027 1579.69 284.258 1482.133 269.093 1387.701 232.40999999999997 1291.175 253.14999999999998 1190.411 274.801 1111.391 342.53 1027.815 402.839 919.669 480.877 773.879 531.939 730.205 657.947 685.685 786.398 744.75 928.076 803.235 1050.801 861.058 1172.136 939.485 1291.95 1060.357 1350.7359999999999 1176.55 1407.2469999999998 1310.9180000000001 1366.147 1440 1360.4940000000001" fill="#1a191f"></path></g><defs><mask id="SvgjsMask1024"><rect width="1440" height="760" fill="#ffffff"></rect></mask></defs></svg>