<svg xmlns="http://www.w3.org/2000/svg" version="1.1" xmlns:xlink="http://www.w3.org/1999/xlink" xmlns:svgjs="http://svgjs.com/svgjs" width="1440" height="760" preserveAspectRatio="none" viewBox="0 0 1440 760"><g mask="url(&quot;#SvgjsMask2296&quot;)" fill="none"><rect width="1440" height="760" x="0" y="0" fill="url(#SvgjsLinearGradient2297)"></rect><path d="M1440 0L1100.28 0L1440 369.74z" fill="rgba(255, 255, 255, .1)"></path><path d="M1100.28 0L1440 369.74L1440 431.66L593.0799999999999 0z" fill="rgba(255, 255, 255, .075)"></path><path d="M593.0799999999999 0L1440 431.66L1440 549.33L450.55999999999995 0z" fill="rgba(255, 255, 255, .05)"></path><path d="M450.55999999999995 0L1440 549.33L1440 550.46L235.85999999999996 0z" fill="rgba(255, 255, 255, .025)"></path><path d="M0 760L204.36 760L0 507.06z" fill="rgba(0, 0, 0, .1)"></path><path d="M0 507.06L204.36 760L223.06 760L0 429.11z" fill="rgba(0, 0, 0, .075)"></path><path d="M0 429.11L223.06 760L364.31 760L0 271.70000000000005z" fill="rgba(0, 0, 0, .05)"></path><path d="M0 271.70000000000005L364.31 760L411.89 760L0 242.51000000000005z" fill="rgba(0, 0, 0, .025)"></path></g><defs><mask id="SvgjsMask2296"><rect width="1440" height="760" fill="#ffffff"></rect></mask><linearGradient x1="88.19%" y1="-22.37%" x2="11.81%" y2="122.37%" gradientUnits="userSpaceOnUse" id="SvgjsLinearGradient2297"><stop stop-color="rgba(21, 20, 25, 1)" offset="0"></stop><stop stop-color="rgba(21, 20, 25, 1)" offset="1"></stop></linearGradient></defs></svg>